<?xml version="1.0" encoding="utf-8"?>
<!-- Generator: Adobe Illustrator 18.0.0, SVG Export Plug-In . SVG Version: 6.00 Build 0)  -->
<!DOCTYPE svg PUBLIC "-//W3C//DTD SVG 1.1//EN" "http://www.w3.org/Graphics/SVG/1.1/DTD/svg11.dtd">
<svg version="1.1" id="Layer_1" xmlns="http://www.w3.org/2000/svg" xmlns:xlink="http://www.w3.org/1999/xlink" x="0px" y="0px"
	 viewBox="0 0 529 689" enable-background="new 0 0 529 689" xml:space="preserve">
<g id="Layer_2">
	<g>
		<path fill="#E6FF98" d="M445.9,517.9c0-1.1,0-2.3,0-3.9c-1.7,0.2-3,0.4-4.7,0.6c-0.1-1.2,0-2.5-0.4-3.7c-0.3-1.1-1.1-2.1-1.7-3.3
			c0.4-0.4,0.9-0.8,1.6-1.4c-1.6-0.2-3-0.3-4.6-0.5c0.1-1.2,0.2-2.3,0.3-3.7c1.3,0.1,2.6,0.2,4.2,0.3c0.1-0.3,0.3-0.8,0.2-1.2
			c-1.5-4.1-2.9-8.2-6.4-11.3c-1.3-1.1-2.3-2.6-3.5-3.9l0,0c1.2-3.8-2.6-5-4.1-7.2c-1.2-1.8-3.1-3.3-4.2-5.3c-0.6-1-1.5-2-2.5-2.3
			c-2.5-0.7-4-2.7-5-4.6c-2.2-4.4-6.4-6.5-9.9-9.4c-4-3.4-8.2-6.6-12.5-9.7c-5.7-4.2-11.3-8.5-18-11c-2.2-0.8-4.3-0.5-6.6,0.5
			c-5.9,2.6-9.3,7.6-12.9,12.4c-2.1,2.8-2.1,6.5-2.3,9.9c-0.2,4.2-0.1,8.3,0,12.5c0,3.2,0.2,3.3,3.2,6.3c0.5,0.5,0.5,1.5,0.8,2.2
			c1,2,0.5,4.8,3.2,5.8c0.4,3,2.9,4.9,3.8,7.7c0.5,1.5,1,3.1,1.9,4.5c2.3,3.6,4.8,7.1,7.1,10.7c2.6,4,5.2,8,7.6,12.2
			c5.2,9.1,11.8,17.3,17.4,26.3c2.4,3.9,4.8,7.9,8,11.3c1,1,1.9,2.2,3.1,3.5c-0.1,0.3,0,1.1-0.4,1.5c-3.3,3.8-5.1,8.6-9.3,11.8
			c-1.8,1.4-2.7,4-4.1,6c-3.2,4.4-6.9,8.3-11.3,11.6c-3.7,2.7-7.2,5.7-10.9,8.4c-1.5,1.2-3.4,1.9-4.9,3c-2.6,2-5,4.3-7.6,6.2
			c-1.6,1.1-3.6,1.6-5.2,2.6c-4.5,2.7-8.7,6.2-13.5,8.1c-4.9,1.9-8.9,5.4-14,7c-2.7,0.8-5.1,3-8.3,2.5c-0.3,0-0.6-0.2-1.4-0.6
			c0-1.4,0-3,0-4.7c-0.3-9.4-0.1-18.9-1.2-28.3c-0.8-6.6-0.1-13.3-0.9-19.8c-0.7-5.3-0.8-10.5-0.9-15.8c0-0.9-0.6-1.8-0.9-2.8
			c-0.4-1.2-0.8-2.5-1-3.8c-1.1-7.1-4.1-13.2-10.4-17.1c-0.6-0.3-1.1-0.9-1.7-1c-3.3-0.8-6.7-1.4-10-2.1c-0.5-0.1-1.1-0.1-1.4-0.4
			c-2.1-2.6-4.6-2-7.1-0.8c-2.3,1.1-4.8,1.9-5.6,5c-0.6,2.3-3.2,3.7-3.5,6.4c-0.2,1.8-0.8,3.5-1.1,5.3c-0.5,3.7-0.9,7.5-1.2,11.3
			c-0.5,5.4-1,10.8-1.5,16.2c-0.1,0.8,0,1.5,0.1,2.3c0.8,4.9,0.4,9.6-2.7,14c0.5,1.5,1,3,1.5,4.6c0.2,0.8,0.7,1.7,0.5,2.4
			c-1,3.7,0.5,7.4,0,11.1c-0.5,3.6-1.3,7.1-1.8,10.6c-0.2,1.5,0,3-0.1,4.5c-0.4,5.6,0.9,11.3-0.9,16.8c-0.2,0.6,0.5,1.5,0.7,2.3
			c0.5,2.9-1.5,6.6-4.6,8c0.8,0.7,1.5,1.2,2.4,1.9c-1,0.8-2.1,1.6-3.3,2.5c-0.4-0.3-1-0.6-1.1-0.9c-0.2-1.6-0.8-2.5-2.9-1.6
			c-0.1,1.5-0.2,3.1-0.4,5c-0.6,0.2-1.7,0.2-2,0.7c-2,3.3-5.1,3.6-8.5,4c-5,0.6-9.9,2.1-14.9,3.1c-1.9,0.4-3.9,0.5-5.8,0.7
			c-2.6,0.3-5.2-0.7-7.9,0.8c-2.1,1.2-4.2,0-7.5-2.7c-0.4,0.2-0.9,0.3-1.2,0.6c-0.2,0.2-0.4,0.5-0.6,0.9c0.7,0.3,1.5,0.5,2.6,1
			c-0.8,0.6-1.3,1.3-1.9,1.4c-5.1,0.5-10.1,1.5-15.3,1.2c-3.2-0.2-6.3-0.1-9.5,0c-2.8,0.1-5.5-0.1-8.4,0.8c-2.1,0.6-4.6-0.1-6.9-0.3
			c-1-0.1-2-0.6-2.9-0.4c-4.4,0.7-8.9,0.2-13.3,1.4c-1.8,0.5-4.1-0.3-6.8-0.7c2.1-2.5,3.8-4.8,5.7-6.9c2-2.3,4.5-4.4,6.2-6.9
			c1.8-2.6,4.3-4.1,6.7-5.8c2.7-1.9,5.5-3.7,6.5-7.1c0.1-0.3,0.3-0.6,0.5-0.8c3.4-3.6,6.9-7.1,10.3-10.6c0.2-0.2,0.5-0.4,0.7-0.7
			c2.8-3.8,5.6-7.7,8.5-11.5c1.2-1.5,1.3-3,0.2-4.6c-2.6-3.6-4.1-7.9-7.6-11c-1.1-1-2.1-1.8-3.5-2.3c-3.8-1.4-7.6-2.8-11.4-4.2
			c-3-1.1-5.1,0-7,2.3c-4.3,5-9,9.7-12.9,15c-6,8.1-13.4,15-19.9,22.7c-3.3,3.9-5.2,8.5-8.5,12.4c-3.1,3.6-5.4,8-7.9,12.2
			c-1.7,2.9-5.1,4.5-8.4,5.9c-3.5,1.5-6.9,3.1-10.5,4.2c-5,1.5-10.1,2.8-15.2,4c-4.5,1.1-9.1-0.2-13.6,0c-4.7,0.2-9.4,0.3-14,0
			c-4.1-0.3-8.4-0.6-12-2.2c-4.8-2-9.7-2.8-14.6-3.8c-2.5-0.5-3.3-2.5-3.8-4.6c-4.5-1-5.5-2.1-5.6-6.7c0-1.7-0.1-3.3,0-5
			c0.6-6.7-1.1-13.1-2.3-19.5c-1-5.5-1.5-11,0.8-16.5c0.9-2.3,1.8-4.5,3.4-6.3c0.2-0.2,0.3-0.8,0.5-0.8c4.3-0.7,4.9-5.1,7.6-7.3
			c2.6-2.2,5.3-4.8,8.4-5.7c7-2.1,12.3-6.9,18.9-9.6c2.4-1,4.7-2.4,7-3.5c0.7-0.3,1.6-0.4,2.4-0.4c1.5,0,2.9,0.1,3.8-1.6
			c0.4-0.7,1.7-1.1,2.6-1.3c3.4-0.8,6.7-2,9.9-3.5c3.2-1.6,6.7-2.8,10.1-4.1c3.2-1.2,6.5-2.3,9.7-3.4c0.5-0.2,1,0,1.5-0.3
			c6.3-3.2,8.2-5.1,5.7-12.4c-2.2-6.5-6.8-10.7-12.9-13.6c-5.2-2.5-10.7-3.6-16.4-2.8c-6.1,0.9-12.3,1.8-18.2,4
			c-2.3,0.9-2.3,0.9-6.2,0.5c0.7-0.6,1.5-1.2,2.2-1.9c0.2-0.2,0.1-0.6,0.2-0.9c-0.2-0.2-0.5-0.6-0.7-0.5c-1.2,0.3-2.5,0.8-3.9,1.2
			c-0.2,1.3-0.3,2.6-0.5,4.3c-3.2-0.8-5.3,4.2-9,1.2c-2.7,2.7-5.9,4.2-9.4,5.4c-6.3,2.2-12.5,4.9-18.7,7.3c-0.6,0.2-1.3,0.2-2.2,0.4
			c-0.2-1.1-0.5-2-0.5-2.9c0.3-5.8,1.9-11.3,3.3-16.8c1.2-4.9,2.5-9.8,3.7-14.7c0.6-2.3,1.8-3.5,4-3.6c4.1-0.1,8.3,0,12.3,0
			c0.4,1.1,0.7,1.8,1,2.6c0.6-0.8,1.2-1.6,2.1-2.7c0.9,1.5,1.7,2.7,2.4,4c2.5-1.8,0-3.7,0.4-5.4c3-1.9,7.5,1.6,9.7-2.8
			c-2.4-2-3.3,0.7-5.3,1.2c-0.9-1.1-1.9-2.3-3.1-3.8c-1.9,1.8-3.7,3.5-5.8,5.6c-0.4-0.2-1.2-0.6-2.4-1.1c0.6-0.9,1.1-1.8,1.6-2.6
			c-0.3-0.4-0.5-0.8-0.7-0.9c-1.7-0.4-3.5-0.8-5.3-1.1c-1.4-0.2-2.7-1-4.3-0.2c-0.8,0.4-2.1-0.3-3.1-0.5c-0.5-4.9,1.5-9,2.9-13
			c1.5-4,1.3-8.7,4.3-12.2c-0.1-4.6,3.2-8.3,3.4-12.8c3-3.5,2-8.6,4.8-12.1c7.8-0.3,14.8,3,22.3,2.8c4.2-0.2,8.4,1.2,12.6,1.7
			c3.9,0.5,7.9,0.9,11.8,1.1c5.4,0.3,10.8,1.4,16.1,1.8c5.3,0.4,10.6,2.2,16,1.4c0.7-0.1,1.6,0.4,2.4,0.5c1.8,0.2,3.8,0.8,5.4,0.2
			c3.4-1.2,6.9-0.7,10.3-0.8c3-0.1,5.9,0.1,8.8-1c2.7-1,5.6-1.8,8.6,0.6c0.1-0.3,0.3-0.6,0.4-1c-0.2-0.9-0.4-1.7-0.6-2.8
			c1.2-1.1,2.4-2.3,3.8-3.4c4.2-3.4,4.1-7.8,2.9-12.5c-0.2-0.6-0.6-1.2-1-1.6c-3-3.1-6.6-5.2-10.7-6.5c-2.4-0.7-4.7-1.5-7-2.3
			c-7.3-2.5-14.4-5.5-21.9-7.2c-4.7-1.1-9.5-2.4-14.3-3.3c-6.7-1.3-13.4-3.1-20.1-4.5c-4.6-1-9.3-1.6-14-2.5
			c-6.9-1.3-13.8-2.7-20.9-4.1c0-3.3-0.1-6.3,0-9.3c0-1.5,0.2-1.5,2.8-2.1c0.1-1.2,0.1-2.5,0.2-3.7c0.3-4.3,0.3-8.6,1.2-12.8
			c1.2-5.2,3-10.3,4.8-15.4c2-5.6,2.5-11.5,4-17.2c1.5-5.4,3.3-10.7,5.3-15.8c0.4-1.1,2.2-2.2,3.5-2.4c2.4-0.4,5.2-0.7,7.4,0.1
			c2.8,1,5.9,1.9,8.2,4.4c1.6,1.7,3.8,3.2,6.1,3.9c4.4,1.4,8,4,11.5,6.5c3,2.1,6.4,3.3,9.4,5.3c5.7,3.9,11.6,7.6,17.4,11.4
			c7.8,5.1,15.9,10,23.8,15c6.6,4.1,13.3,8.3,20,12.2c5.4,3.1,11.5-1.1,12.2-6.3c0.5-3.8-0.3-7.5-1.6-11.1
			c-2.4-6.5-5.1-12.8-8.7-18.7c-1.8-2.9-3-6.1-4.7-9c-0.9-1.6-1.6-3.7-3.9-4.1c-0.4-0.1-0.6-1-1-1.5c-0.9-1.2-1.6-2.7-2.7-3.4
			c-6.5-4.2-12.4-9.2-18.8-13.5c-5.6-3.7-11.1-7.6-16.8-11.2c-5.5-3.5-11.1-7.2-17.1-9.7c-6.2-2.5-11.4-6.8-17.9-8.7
			c-0.6-0.2-1.2-0.7-1.5-1.2c-1.4-2.6-3.5-4.3-5.9-5.9c-1.4-0.9-1.6-2.4-0.7-3.9c0.8-1.3,1.2-2.8,2.1-3.9c0.9-1.1,1.3-2.2,1.3-3.6
			c0-0.6,0-1.7,0.4-1.9c2.5-1.5,1.9-4.2,2.5-6.4c1.5-5.4,4.5-10.2,6.9-15.2c0.4-0.9,1-1.7,1.2-2.6c1-3.8,2.4-7.2,5.2-10
			c2.6-2.6,5-5.3,7.2-8.2c1.1-1.5,2.3-3.1,1-5.4c-1.2-2.1,0.8-3.6,1.9-5.4c0.8,1.5,1.5,2.7,2.3,4.2c1.3-1,2.2-1.7,3.3-2.6
			c-0.6-0.9-1.1-1.5-1.7-2.5c1.3-1.3,2.7-2.7,4.1-4c-0.4-0.2-1.1-0.4-2.6-1c1.7-0.5,2.7-1.2,3.7-1.1c1.9,0.1,3.2-0.8,4.2-2.2
			c1.4-1.8,2.9-3.6,4.3-5.4c0.3-0.4,0.6-1.2,0.8-1.2c4.3,0.1,5.4-4.3,8.5-6c3.1-1.8,5.6-4.5,8.7-7.1c1.7,2.5,3.3,5.2,5.2,7.6
			c1.7,2.2,3.7,4.3,5.8,6.1c1,0.9,1.7,1.6,2.4,2.9c1.1,2.2,2.6,4.2,4.4,5.9c5.4,5.3,10.6,10.8,14.9,17c1.6,2.2,3.8,4,5.8,6
			c2.1,2.1,4.1,4.2,6.3,6.2c5.5,5.2,11.1,10.4,16.8,15.4c3.3,2.9,7.4,4.2,11.7,4.6c2,0.2,4.1-0.7,6.4-1.2c1.1,3,4.6,4.2,3.7,8.3
			c1.3-0.2,2.1-0.2,2.7-0.6c1.2-0.9,2.1-2,3.5-3.3c-1.5-2.2-2.9-4.5-4.5-7c3.2-2.2,5.4-4.8,6.9-8.1c1.4-3.1,1.3-6.1,0.2-9
			c-1.4-3.8-3.1-7.5-5.9-10.7c-3.3-3.7-5.8-8-8.8-11.9c-4.8-6.2-9.9-12.3-14.7-18.5c-1.5-1.9-3-3.7-3.6-6.3
			c-0.6-2.6-2.1-5.2-4.8-6.6c-0.7-0.4-1.3-0.9-2-1.5c0.4-1.2,0.7-2.3,1-3.2c-0.3-0.5-0.4-0.9-0.6-1c-3.9-1.7-3.9-1.7-2.4-5.2
			c0.4-0.8,0.6-1.7,1.2-3.4c-1.7,0.9-2.7,1.3-3.3,1.7c-2.1-0.6-4.1-1.2-6.5-1.9c-1.7-1.8-1.6-4.3-1-7.2c1.5-0.2,2.9-0.3,4.4-0.5
			c0.1-0.9,0.1-1.5,0.2-2.5c-1.3,0.6-2.3,1.1-3.7,1.8c-0.3-3,2.1-3.4,3.3-4.7c-0.4-0.3-0.8-0.6-1.4-1c2-1.7,4.4-1.8,6.7-1.9
			c0.6,0,1.7,0.3,1.8,0.1c1.3-2.9,4.9-2.1,6.2-4.7c1,0.7,1.7,1.2,2.3,1.7c0.2-0.1,0.6-0.2,0.7-0.4c0.3-0.7,0.5-1.6,0.9-2.3
			c0.2-0.4,0.8-0.5,1.2-0.8c2.1,0.4,2.3,4.3,5.2,2.7c0.1-0.9,0-2.1,0.6-2.8c0.5-0.6,1.7-0.9,2.7-0.9c5.2-0.1,10.3,0,15.5,0
			c4.2,0,8.3-0.1,12.5,0c2.1,0.1,4.2,0.5,6.3,1c2.3,0.6,4.3,2.5,6.9,1c0.2-0.1,0.6,0.1,0.9,0.2c6.2,2.6,13,3.8,18.5,7.8
			c7.9,5.8,16,11.4,22.9,18.4c1.9,2,3.7,4.1,5.4,6.3c3.1,4,7.2,7.5,9,12.3c1.8,4.6,4.5,8.5,7.4,12.2c4.3,5.5,6.8,12,10.5,17.8
			c2.2,3.4,3.2,7.5,4.4,11.4c1.1,3.4,2,6.9,2.7,10.4c1,4.6,0.7,9.5,2.4,14c-1.9,3.7,0.8,7.6-0.7,11.5c-1.3,3.5-0.1,7.4-0.1,11.3
			c3.1-2.2,5.1-4.9,6.6-8c2.7-5.4,6.7-10,10.1-14.9c4.2-5.9,7.1-12.4,9.8-19.1c0.5-1.2-0.2-2.9,0.5-3.9c2.7-3.7,1.8-8.1,3-12.1
			c1.9-6.6,3.9-13.1,4.1-20.1c0.1-3.3,1.6-6.6,2.5-10c0.7-2.9,0.2-6.3,3.1-8.5c0.3-0.2,0.3-1,0.2-1.4c-1.8-4.9,1-9.7,0-14.6
			c1.9-6.5,0.3-13.2,1.1-19.8c2-18.4,0.6-36.9,0.9-55.3c0.1-9.3-0.6-18.5-1-27.8c0-0.9-0.5-1.8-0.9-2.7c-0.2-0.4-0.8-0.8-0.8-1.2
			c-0.7-7.8-5.3-14.5-6.2-22.1c-1.1-8.5-4.9-16.3-5.4-24.9c0-0.5-0.4-0.9-0.6-1.5c0.9-1.2,1.9-2.5,3.3-4.4c0.3,1.5,0.6,2.4,0.7,3.2
			c0.1,1.8,0.1,3.4,2.8,2.6c0.6-0.2,1.8,1.5,2.9,2.5c0.7-2.6,0.7-5.2-0.9-7.2c-1.5-1.8-2.1-3.7-1.6-6.2c-3.1,2-5.7,3.4-10,1.7
			c2.4-0.9,3.9-1.4,5.7-2.1c-0.3-1.3-0.5-2.3-0.7-3.3c1.5-0.9,2.6-1.5,4.5-0.9c4.7,1.4,9.6,2.1,14.6,0.4c2.6-0.9,4.9,1.2,5.7,4
			c0.9,2.8,2.2,5.5,2.9,8.3c1.8,6.8,3.2,13.7,5.2,20.4c1.5,5.2,3.8,10.1,5.4,15.3c1.1,3.7,1.7,7.6,2.5,11.5c0.5,2.4,0.7,4.9,1,7.3
			c0,0.2-0.1,0.4,0,0.5c2.9,4,1.3,9,3.1,13.2c1.3,3.2,0.7,6.5,0.9,9.8c0,0.3,0,0.7,0,1c-0.2,2.1-3.3,3.7-1.6,5.8
			c1.3,1.6,1.9,3.3,2.6,5c-0.6,0.9-1.2,1.6-2,2.7c0.6,0.5,1.2,1,2,1.7c-0.6,1-1.2,2.1-2,3.6c0.9,0.4,1.7,0.7,2.8,1.2
			c0.1,0.9,0.2,2,0.2,3.1c0,9,0.6,18.1-0.2,27c-0.5,5.9-1,11.8-1.4,17.6c-0.5,6.5-3,12.8-2.4,19.4c0.2,2.2-0.7,4.5-1.1,6.8
			c-0.3,1.8-0.6,3.6-0.8,5.3c-0.1,1.3,0.3,2.6-1.3,3.5c-0.5,0.2-0.6,1.4-0.7,2.2c-0.7,6-1,12.1-2.2,18.1c-1.6,7.8-2.5,15.8-5.2,23.4
			c-1.9,5.3-4.2,10.2-6.9,15.1c-2.6,4.9-6.9,8.8-8.6,14.2c-0.3,1.1-1,2.2-1.9,2.9c-2.9,2.4-3.8,6.1-6.2,8.8
			c-1.8,2.1-3.7,4.5-4.3,7.1c-0.7,3-3,4.4-4.6,6.6c-2.9,4-5.4,8.1-7.3,12.6c-0.1,0.3-0.3,0.6-0.5,0.8c-2.2,2-3.7,4.5-4.8,7.4
			c-1,2.5-2.9,4.7-4.7,6.8c-1.4,1.8-3.2,3.4-4.7,5.1c-1.7,2-4.7,3.2-4.9,6c-0.2,2.7-2.9,3.6-3.3,6c-0.1,0.8-0.5,1.9-1.1,2.1
			c-2.9,1.2-3.6,4.1-5.4,6.2c-3.1,3.6-5,8-8.7,11.1c-1.8,1.5-0.2,3,0,4.7c-5.2,1.7-7.8,6-10.8,10c-0.4,0.5-0.4,1.4-0.8,1.7
			c-4.1,2.6-5.7,7.4-8.6,10.9c-1.3,1.5-2,3.4-4.1,4.1c-0.4,0.2-1,0.6-1.1,1c-1.1,4.8-5.3,7.3-8.1,10.8c-2.7,3.5-6,6.6-8.9,10
			c-2.8,3.3-5.5,6.6-8,10.1c-3,4.3-6.5,8.1-10.5,11.4c-0.5,0.4-1.2,0.9-1.4,1.4c-1.4,3.6-4.6,5.3-7.4,7.5c-2,1.5-3.6,3.5-5.4,5.2
			c-1.2,1.1-2.2,2.5-4.2,2.4c-0.5,0-1.2,0.5-1.5,0.9c-1,1.4-2.1,2.9-2.9,4.5c-0.7,1.5-1.6,2.3-3.2,2.7c-1,0.2-1.8,1.4-2.7,2
			c-1.3,1-2.6,1.9-3.9,2.8c-0.4,0.3-0.9,0.4-1.2,0.7c-2.8,3.5-5.4,7-8.3,10.5c-1.6,2-3,4.4-6,4.9c-1,0.2-2.1,1.2-2.6,2.1
			c-1.5,2.5-4.5,3.8-5.3,6.7c-4.7,1.6-6.8,6.3-10.6,8.9c-0.1,0.1-0.4,0.1-0.5,0.2c-2.8,2.9-5.7,5.6-9.1,7.8
			c-0.4,2.7-3.1,3.3-4.5,5.2c-1.3,1.9-3.4,3.2-4.8,5.1c-1.1,1.4-3.6,2-2.9,4.6c0,0.2-0.4,0.7-0.6,0.7c-4.5,0.7-5.5,4.8-7.7,7.7
			c-0.2,0.2-0.5,0.3-0.8,0.4c-0.3-0.4-0.6-0.8-0.9-1.2c-0.3,0.1-0.6,0.2-0.8,0.4c-1.2,1.2-2.3,2.4-3.6,3.5c-2.1,1.7-2.9,3.8-1.9,6.1
			c0.8,1.7,0,2.3-1,3.2c-0.5,0.5-0.6,1.4-0.9,2.4c-1.9-0.7-2.1-4-5.1-2.6c0.8,1.1,1.7,2.1,2.7,3.4c-0.5,0.7-1.1,1.4-1.8,2.3
			c-1.1-1.2-2.1-2.2-3-3.2c-2.3,2.5-4.4,4.7-6.4,6.9c1.3,0.9,2.2-0.9,3.4-1.5c0.7-0.3,1.7,0.2,2.6,0.4c-0.3,0.7-0.3,1.6-0.8,2.1
			c-2.9,2.4-5.8,4.9-8.9,6.9c-4,2.7-7.1,6.3-10.8,9.2c-2.9,2.4-6,4.6-10.1,5.3c0.6,0.9,1.1,1.8,1.8,3c-1.8,1.3-3.6,2.4-5.2,3.8
			c-2.2,2-4.1,4.2-6.2,6.3c-0.5,0.5-1.1,0.7-1.7,1.1c-6.4,4.2-12.9,8.4-19.3,12.6c-0.1,0.1-0.3,0.1-0.4,0.2c-1.7,1.8-3,4.2-5.1,5.3
			c-2.1,1.2-4.1,2.3-6.7,4.3c3.7,0.2,5.8-1.5,7.9-2.9c3.3-2.1,6.6-4.4,9.8-6.7c2.7-1.9,5.4-3.9,8.1-5.8c1.3-0.9,2.8-1.7,4.2-2.5
			c0.6-0.3,1.2-0.5,1.7-0.9c4.2-3.5,8.3-7.1,12.6-10.5c6-4.7,11.2-10.5,18-14.2c1.6-0.9,2.8-2.7,4.2-4c5.1-4.7,9.5-10.2,15.2-14.4
			c4.8-3.5,9.2-7.6,13.6-11.5c2-1.8,5.2-2.1,6.4-5.1c0.3-0.6,2.1-0.6,3.4-0.9c0.2-1,0.5-2.1,0.7-3.2c3.4-0.7,6.3-1.8,8-5.1
			c0.2-0.4,0.6-0.9,1-1c1.7-0.4,3.3-0.9,4.1-2.4c0.7-1.4,3.3-1.1,3-3.4c0-0.1,1.1-0.3,1.6-0.6c1.6-1.1,3.6-2,4.8-3.4
			c2.2-2.6,4.8-4.9,7.2-7.3c2.7-2.7,6-4.5,8.7-7c1.9-1.8,4.7-2.8,6.2-4.8c1.7-2.4,3.9-4,5.9-5.8c0.8-0.8,1.7-1.5,2.5-2.3
			c7.2-7.3,14.3-14.8,21.7-21.8c3.6-3.4,6.6-7.5,11.1-10.1c1.8-1.1,3.4-2.8,4.2-5.3c0.9-3,3.4-3.9,7-3.3c0.4-1.3,0.8-2.7,1.3-4.4
			c0.8,0.2,1.6,0.4,2.8,0.7c1.6-1.9,4.7-2.6,5.1-5.8c3.3-1.8,4.6-5.8,7.7-7.5c4.7-2.7,7.7-6.7,9.6-11.4c1.1-2.9,2.6-2.7,5.1-2.5
			c-0.2-1.3,1.7-3.2-1.8-3.3c0.5-1.8,0.9-3.4,1.4-5.3c1.1,0.2,2,0.5,3,0.7c0.2-0.4,0.6-0.8,0.6-1.2c-0.2-2.4,0.5-4.2,2.7-5.5
			c0.5-0.3,1-0.8,1.4-1.2c3.9-4.9,7.6-10,11.5-14.8c2.6-3.2,5.6-6,8.5-9c0.2-0.2,0.6-0.1,1-0.1c0.9,4-3,6.7-3,10.8
			c4-1.6,2.3-6,5.2-7.8c-0.9-1.2-1.6-2-2.2-2.9c-0.1-2.1,1-2.1,2.6-1.3c1.5-2.2,1.7-6,6.1-4.5c-0.2-1.9-0.7-3.4-0.3-4.6
			c0.4-1.1,1.8-1.9,2.6-3c4.4-5.8,8.8-11.5,13-17.4c4.5-6.3,9.3-12.4,13.2-19.1c2.5-4.3,5.2-8.3,8.3-12.1c1.7-6.8,8.6-10.3,10.6-17
			c3-1.9,3.9-5.4,5.9-8.1c6-8.1,11.3-16.8,17.7-24.7c4.2-5.2,8.3-10.6,14-14.5c1.8-1.2,3.7-1.3,5.4-2.2c4.4-2.3,9-3.9,13.8-4.8
			c3.5-0.7,6.7-2.4,10.3-2.7c3.5-0.3,7-0.1,10.5,0c0.8,0,1.7,0.1,2.4,0.5c2.6,1.2,5.4,2.3,7.8,3.9c2.7,1.8,5.5,3.4,7.6,6.1
			c2.9,3.8,6.7,7,9.5,10.8c2.8,3.8,5,8,7.4,12.1c3.7,6.4,5.9,13.5,7.4,20.7c0.5,2.4,0.8,4.8,1.2,7.6c-0.9,0.5-2,1.1-3.2,1.7
			c0.1,0.1,0.2,0.4,0.4,0.5c0.9,0.3,2.2,0.2,2.7,0.8c0.7,0.8,1.2,2.1,1.2,3.2c-0.4,7.1,1.1,14.3-0.8,21.3c-0.2,0.8,0,1.7-0.1,2.5
			c-0.5,8.4-1,16.7-3.7,24.8c-0.4,1.2-0.3,2.6-0.3,3.9c-0.1,3.3-1,6.4-2.3,9.3c-2,0.8-3.4,0.2-4.7-1.1c-2.2-2-4.4-4.1-6.8-5.7
			c-2-1.3-3.8-3.1-6.6-2.9c-1.3,0.1-2.7-1-4.1-1.7c-5.1-2.5-10.6-2.4-16-2.1c-1.3,0.1-2.7,1.1-3.8,2.1c-2.7,2.2-5.7,4.2-6.4,8.2
			c-0.3,1.8-2,3.4-2,5.1c0,1.6,1.8,3.1,2.3,4.8c0.5,1.7,1.5,2.8,2.9,3.7c0.5,0.4,1.1,0.9,1.4,1.4c2.9,4.6,7.5,7.2,12.1,10.3
			c-1.4,0.3-2.5,0.5-3.6,0.7c0.8,2.3,2.9,1.3,4.3,2c-0.2,0.8-0.3,1.4-0.6,2.5c2.1,0.1,4,0.3,6,0.4c2.9,3.1,5.8,6.3,8.9,9.5
			c-0.2,0.9-0.5,1.8-0.8,2.9c0.7,0.2,1.3,0.3,1.9,0.4l0,0c-0.5,2.4,1.2,3.6,2.5,5.1c2,2.1,2.1,2.6,0.3,4.5c-1.2,1.2-1.1,2.3-1.1,3.8
			c0,1.1-1.2,2.3-1.7,3.4c-1.8,3.7-3.1,7.7-6,10.7c-0.3,0.4-0.8,0.8-0.8,1.2c0.2,3.8-3,6.1-3.8,9.4c-0.7,2.6-2.7,4-5.8,4.2
			c1,1.6,1.5,2.6,2.1,3.6c-2.3,0.4-4.3,0.9-7.5,1.5c2.2,1.3,3.4,2,5.1,3c-1.6,0.9-2.8,1.6-4.6,2.5c1.2,0.6,1.9,0.9,2.8,1.3
			c0,0.2,0.1,0.5,0,0.7c-0.6,1.2-1,2.6-1.9,3.5c-0.8,0.9-1.4,1.2-1.1,2.8c0.2,1-1,2.9-2.1,3.5c-1.7,1-2.3,2.1-2.4,3.9
			c-0.1,1.1-0.7,2.2-1.3,3.2c-2.4,3.9-5,7.7-7.5,11.6c-0.5,0.8-1.2,1.6-1.5,2.5c-1.5,5.1-5.9,8.2-8.6,12.4c-0.3,0.5-1.4,0.5-2.3,0.7
			C448.4,521.1,449.5,517.7,445.9,517.9L445.9,517.9z M184.9,517.9c1.6,0,3.1,0,5,0c-1.4-3-1.4-3-4.8-2.4
			C185,516.3,185,517.1,184.9,517.9c-0.5,0.2-1.1,0.4-1.6,0.6c0.3,0.3,0.7,0.7,1,1C184.5,518.9,184.7,518.4,184.9,517.9z
			 M432.9,363.9c0.6-1.2,1.2-2.3,1.9-3.7c-1.8-0.3-3.3-0.8-4.6,1.2C430.9,362.4,430.9,364,432.9,363.9c0.8,1.8,2.4,2.9,3.9,1.4
			c1.6-1.5,3.2-1.3,5.5-0.9c-2.7-2.8-3.5-3.2-5.3-1.9C435.7,363.4,434.5,364,432.9,363.9z M237.9,458.2c0.2,1.4,0.4,2.5,0.6,3.8
			c-1.9,1.1-4.9,0.8-5.3,4c0,0.4-1.1,0.6-1.6,0.9c-2.8,1.3-4.4,4.3-3.9,8c6.6-6.5,13.7-12.1,21.2-17c0-0.8,0-1.6,0-2.9
			C245,456.1,241.5,457.1,237.9,458.2z M162.1,245.9c1.3-1.7,0.6-2.3-0.6-3.3c-2.4-2.1-6-4-3.5-8.4c-1.6-1.1-3.1-2.1-4.5-3.1
			c-0.7,1-1.3,1.8-1.9,2.7c-1.9-2.4-1.9-2.4,0-4.8c-0.7-0.3-1.4-0.7-2-1c-2.2,2.9-1.9,5.7-1.4,8.8c1.5-0.3,2.7-0.6,3.9-0.9
			c1.5,3.6,1.5,3.5,5.9,6.7c0.8,0.6,1.4,1.4,2.2,2.1C160.8,245.1,161.4,245.5,162.1,245.9z M247,296.6c-0.8-0.9-1.6-1.5-2.1-2.3
			c-0.5-0.8-0.7-1.8-1.1-2.7c-0.9-1.7-5.2-2.5-6.8-1c0,0.9,0.1,1.9,0.2,3.2c1.4-0.1,2.4-0.3,2.7-0.3c2.1,2,3.7,3.6,5.4,5.1
			c0.5-0.4,0.8-0.6,1-0.8C246.5,297.7,246.6,297.3,247,296.6z M397,37.9c-0.3-5.6-2-10.2-4.6-14.8c-1.8,1.6-1.7,3.1-1,4.7
			c0.9,1.9,1.7,3.8,2.5,5.7C394.6,35,394.8,36.7,397,37.9z M83.9,530.5c0.1,0.4,0.2,0.7,0.4,1.1c0.8-0.3,1.6-0.5,2.3-0.9
			c1.3-0.9,2.5-2.6,3.8-2.7c2.6-0.1,4.3-1.4,6.3-2.9c-2.5-0.5-4.8-1-6.3-1.3C87.8,526.5,85.9,528.5,83.9,530.5z M473.9,357.5
			c-1.3-2.9-2.3-5.2-3.5-8c-1.8,2.9-3.2,5.2-4.9,7.8c1.7-0.1,2.8-0.4,3.8-0.1c1,0.3,1.9,1.1,3,1.9
			C473,358.4,473.5,357.9,473.9,357.5z M74.6,358.5c-0.3-1.2-0.5-2.3-0.9-3.1c-0.8-1.5-2.7-2-4.3-1.3c-1.4,0.6-1.7,2-0.9,3.8
			c1.5,3.5,2.7,3.7,5.8,1.1C74.3,358.9,74.4,358.8,74.6,358.5z M485.9,354.3c-3.1,0-5.9,0-8.9,0c0.1,1.2,0.1,2.2,0.2,3.5
			c2.6-0.1,5-0.3,7.5-0.4C485,356.5,485.4,355.5,485.9,354.3z M451.9,492.1c1.3-4.1-2.3-7.9-7-7.4c1,1.3,1.9,2.6,3,3.7
			C449.2,489.7,450.5,490.8,451.9,492.1z M399.5,55.2c0.4,3.5,1.6,6.6,4.1,9.9C404.4,60.5,403.7,57.2,399.5,55.2z M205.6,535.5
			c-2.5,2.9-4.6,5.3-6.7,7.7c0.6,0.5,1.1,1,1.8,1.7C202.3,541.9,206.7,540.9,205.6,535.5z M369.7,599.5c0.7-3.1,0.1-6.3-0.2-10.1
			c-1.2,0.8-2.3,1.1-2.4,1.7c-0.3,1-0.2,2.3,0.2,3.3C367.9,596.2,368.9,597.8,369.7,599.5z M494.8,282c1.2,1.5,2.2,2.7,3.3,4.1
			c1-2.1,1.9-3.9,2.8-5.7C497,279.9,497,279.9,494.8,282z M360.2,374.3c2.6-2,6-3.7,4.2-8.3C361.8,368.2,360.6,370.9,360.2,374.3z
			 M481.1,425.5c0,1.3,0,2.5,0,3.7c1.9,0.9,3.7,1.6,5.6,2.5C487.4,427.2,482.6,427.8,481.1,425.5z M153.1,481.4
			c1.7,0.7,3.3,2.5,5.8,0.6c-1.2-2.3-3.4-3-5.8-4.2C153.1,479.2,153.1,480.2,153.1,481.4z M327.5,549.6c-0.9-0.5-1.6-0.9-2.3-1.3
			c-0.2,0.2-0.3,0.4-0.5,0.6c0.9,1.2,1.8,2.5,2.9,4c1.8-3.5,1.4-6.6,0.5-10.1C325.3,545.1,328.7,547.2,327.5,549.6z M507.8,317.8
			c-1.9,0.1-3.3,0.2-4.7,0.3c0,1.3,0,2.3,0,3.2C507.1,321.8,507.1,321.8,507.8,317.8z M225.6,667c2.1-1.5,1.1-3.2,1.2-5
			c-1.9-0.2-3.4-0.7-5.1,0.8C223.1,664.3,224.3,665.6,225.6,667z M208.9,450.7c1.4,2.4,3.1,3.5,5.9,2.8
			C212.8,449.6,212.8,449.6,208.9,450.7z M172.3,357.3c-1.6-2.6-4.4-2.8-6.2-4.3c-0.1-0.1-0.7,0.4-1.8,1.2
			C167.5,354.6,168.1,358.7,172.3,357.3z M381.5,386.1c-2.4,2.5-1.1,4.1-0.3,5.2c0.9,1.3,0.1,3.7,2.5,4.2
			C384.6,392,381.7,389.9,381.5,386.1z M280.9,368.5c-0.8-0.8-1.7-1.5-2.6-2.3c-0.5,2.1-1,3.8-1.3,5.6c-0.1,0.6,0.3,1.3,0.7,2.6
			C279,372,279.9,370.4,280.9,368.5z M255.7,172.2c0.8,1.5,1.3,2.5,1.9,3.7c2.4-2.1,2.9-3.5,1.4-5.1
			C258,171.2,257,171.6,255.7,172.2z M168.9,485.7c-4.9-3.5-4.9-3.5-7.6,0C163.7,485.7,165.9,485.7,168.9,485.7z M229,661.6
			c0.9-2.6,1.4-5.1-0.3-8.5C227.7,656.6,227.6,659.1,229,661.6z M317.6,272.8c2.6-1.1,0.7-2.6,0.4-3.9c-0.3-1.7-0.7-3-3.2-2.7
			C315.8,268.6,316.7,270.6,317.6,272.8z M423.7,463.3c-1.2,3.2-0.5,5,1.6,6.6C426.7,467.3,425.5,465.7,423.7,463.3z M443.8,477.2
			c-0.8,1.4-1.7,2.3-1.6,3c0.3,1.2,1.4,2,2.7,1.5c0.4-0.2,1.1-1.1,0.9-1.4C445.4,479.4,444.7,478.6,443.8,477.2z M361.5,302.6
			c0.8,1,1.1,1.7,1.5,1.7c0.9,0.1,1.8,0,2.6-0.1c0.1,0,0.3-1.2,0.1-1.3c-0.6-0.5-1.3-0.8-2-0.9C363.2,301.8,362.6,302.2,361.5,302.6
			z M325.3,247.5c-0.6,2.6-0.1,3.9,2.1,4.2C328.4,249.7,327.5,248.7,325.3,247.5z M321.4,286.1c1.4-2.6,1.4-2.6-1.6-6.1
			C320.3,282.2,320.8,283.8,321.4,286.1z M417,148.3c-0.1-2.3-0.2-3.7-0.3-5.4C414.5,144.6,414.5,145.9,417,148.3z M512.6,367.6
			c-1.1,0.7-1.8,1.2-2.7,1.8c1,0.9,1.8,1.5,3.1,2.6C512.8,370.2,512.7,369.2,512.6,367.6z M492,446.3c1.1-2,1.3-3.2-0.2-4.7
			C490.7,443.3,490.6,444.5,492,446.3z M364.3,517.6c1.9-1.3,2-2.5,0-4.2C364.3,515.3,364.3,516.4,364.3,517.6z M370.1,300.7
			c0.2,0,0.5,0,0.7,0c0.2-0.8,0.5-1.6,0.7-2.4c-0.7,0-1.5,0-2.2,0C369.6,299.1,369.8,299.9,370.1,300.7z M502.2,325.5
			c-1.3-2-2.3-1.8-3.3-1c-0.3,0.2-0.4,0.7-0.8,1.4C499.6,325.7,500.6,325.6,502.2,325.5z M196.3,177.6c-0.5,0.5-0.8,0.8-1.1,1.1
			c0.6,0.3,1.1,0.8,1.8,1c0.1,0,0.5-0.6,0.8-0.9C197.2,178.4,196.8,178,196.3,177.6z M333.2,407.1c-0.6-0.5-1-1.1-1.2-1
			c-0.6,0.4-1.2,0.9-1.7,1.3c0.3,0.3,0.8,1,0.9,1C331.8,408.1,332.4,407.6,333.2,407.1z M454.6,497.1c-0.2,0.7-0.6,1.4-0.4,1.6
			c0.4,0.5,1.1,0.8,1.7,1c0.1,0,0.8-0.8,0.7-0.9C456.3,498.4,455.8,498,454.6,497.1z M462,354.1c0.6-0.8,1.2-1.3,1.5-1.9
			c0.1-0.1-0.6-0.6-0.9-1c-0.5,0.5-1.1,1-1.4,1.5C461.1,352.9,461.5,353.5,462,354.1z M263.4,604.4c0.6-0.7,0.9-1.2,1.3-1.6
			c-0.3-0.3-0.7-0.8-1-0.8c-0.5,0.1-1,0.5-1.5,0.8C262.5,603.2,262.8,603.6,263.4,604.4z M40.5,620.7c1.2-0.4,1.7-0.5,2-0.8
			c0.5-0.3,0.9-0.7,1.2-1.2c0.1-0.1-0.3-0.7-0.4-0.7c-0.6,0.2-1.2,0.3-1.6,0.7C41.3,619,41.2,619.5,40.5,620.7z M102.8,664.3
			c0.2-0.3,0.3-0.6,0.5-0.9c-0.4-0.2-0.9-0.5-1.3-0.5c-0.6,0-1.2,0.3-1.8,0.5c0.3,0.4,0.6,1.1,1,1.2
			C101.6,664.9,102.3,664.5,102.8,664.3z M58.9,520.5c0.4-0.1,0.7-0.3,1.1-0.4c-0.4-0.7-0.7-1.4-1.1-2.1c-0.3,0.1-0.8,0.4-0.8,0.4
			C58.4,519.2,58.7,519.8,58.9,520.5z M32.1,536.6c0.3-0.1,0.5-0.2,0.8-0.3c-0.3-0.8-0.5-1.5-0.8-2.3c-0.3,0.1-0.6,0.2-0.8,0.3
			C31.5,535.1,31.8,535.9,32.1,536.6z M104.6,658.5c0-1.1,0-2.1,0-3.9C103.9,656.5,102.3,657.5,104.6,658.5z M488.1,433.7
			c-0.5,0.6-0.8,0.9-0.9,1.2c-0.1,0.2,0.3,0.7,0.4,0.7c0.4-0.1,0.9-0.2,1.1-0.5C488.7,434.9,488.4,434.4,488.1,433.7z M198.8,509.2
			c0.6,0.2,1,0.4,1.4,0.5c0.1-0.4,0.3-0.8,0.3-1.2c0-0.1-0.6-0.4-0.8-0.3C199.5,508.3,199.3,508.7,198.8,509.2z M51,489.6
			c-0.6-0.2-1-0.4-1.4-0.5c-0.1,0.4-0.3,0.8-0.3,1.2c0,0.1,0.6,0.4,0.8,0.3C50.4,490.4,50.6,490,51,489.6z M467.1,399
			c-0.6-0.5-0.8-0.8-1.2-0.9c-0.2-0.1-0.8,0.3-0.7,0.4c0.1,0.4,0.2,0.9,0.5,1.1C465.9,399.7,466.4,399.3,467.1,399z M429.6,475.8
			c-0.2,0.6-0.4,1-0.5,1.4c0.4,0.1,0.8,0.3,1.2,0.3c0.1,0,0.4-0.6,0.3-0.8C430.5,476.4,430.1,476.2,429.6,475.8z M302.1,227.7
			c-0.5,0.6-0.8,0.9-0.9,1.2c-0.1,0.2,0.3,0.7,0.4,0.7c0.4-0.1,0.9-0.2,1.1-0.5C302.7,228.9,302.4,228.4,302.1,227.7z M382.1,23.7
			c-0.5,0.6-0.8,0.9-0.9,1.2c-0.1,0.2,0.3,0.7,0.4,0.7c0.4-0.1,0.9-0.2,1.1-0.5C382.7,24.9,382.4,24.4,382.1,23.7z M253.9,657.1
			c0.4-0.7,0.8-1.1,0.7-1.3c-0.1-0.3-0.6-0.5-1-0.6c-0.1,0-0.5,0.4-0.5,0.6C253.3,656.1,253.6,656.4,253.9,657.1z M423.9,406.1
			c0.4-0.7,0.8-1.1,0.7-1.3c-0.1-0.3-0.6-0.5-1-0.6c-0.1,0-0.5,0.4-0.5,0.6C423.3,405.1,423.6,405.4,423.9,406.1z M25.9,661.9
			c0.3-0.2,0.5-0.4,0.8-0.7c-0.5-0.3-0.9-0.6-1.4-0.9c0,0-0.3,0.3-0.2,0.3C25.3,661.1,25.6,661.5,25.9,661.9z"/>
		<path fill="#E6FF98" d="M366.6,13.9c1.9,0,3.7,0,5.6,0c-1.6,3.6-1.6,3.6-4.1,3.5c0.3,0.9,0.5,1.8,0.8,2.7c-1.5,1-2.4,0-2.6-1.1
			C365.8,17.5,365.5,15.6,366.6,13.9z"/>
		<path fill="#E6FF98" d="M165.1,555.9c0-1.8,0-3.1,0-4.8c2.4-1,4.9-2,7.3-3.1c0.1,0.2,0.3,0.4,0.4,0.6
			C170.4,551,167.9,553.3,165.1,555.9z"/>
		<path fill="#E6FF98" d="M433.3,496.7c-1.1-1.7-4.1-2.5-2.8-5.9c1.4,1.1,2.5,1.9,3.5,2.8C435.5,494.8,434.8,495.7,433.3,496.7z"/>
		<path fill="#E6FF98" d="M307.4,429.9c-0.9-2.5,0.1-3.4,2-4.1C310.3,428.2,308.3,428.5,307.4,429.9z"/>
		<path fill="#E6FF98" d="M184.9,179.4c1.1,1,2.7,2.1,0.2,3.1C185.1,181.5,185,180.4,184.9,179.4z"/>
		<path fill="#E6FF98" d="M445.9,517.9c-0.1,0.5,0,1-0.2,1.3c-0.2,0.3-0.8,0.3-1.2,0.4c0-0.5-0.1-1.1,0.1-1.5
			C444.8,517.8,445.5,517.9,445.9,517.9C445.9,517.9,445.9,517.9,445.9,517.9z"/>
		<path fill="#E6FF98" d="M430.9,485.9c0,0.3,0,0.7-0.1,1c-0.2,0.3-0.6,0.6-1,0.8c-0.1,0-0.6-0.5-0.6-0.6c0.2-0.4,0.4-0.8,0.8-1
			C430.2,485.8,430.6,485.9,430.9,485.9L430.9,485.9z"/>
		<path fill="#E6FF98" d="M496.9,423.9c0-1.7,0.7-2.4,2.9-1.6C498.6,422.9,497.8,423.4,496.9,423.9L496.9,423.9z"/>
		<path fill="#E6FF98" d="M335,372.9c-0.4,0.3-0.8,0.6-1.3,0.8c-0.1,0-0.3-0.2-0.3-0.2c0.3-0.5,0.6-0.9,0.9-1.4
			C334.5,372.4,334.7,372.6,335,372.9z"/>
	</g>
</g>
</svg>
